# xmcd
#
# Track frame offsets:
#  150
#  18553
#  32538
#  44917
#  62783
#  79546
#  92093
#  105915
#  118180
#  132747
#
# Disc length: 1989 seconds
#
# Revision: 0
# Processed by: cddbd v1.5.1PL2 Copyright (c) Steve Scherf et al.
# Submitted via: Collectorz.com_Music_Collector 6.10
#
DISCID=8507c30a
DTITLE=Clint Black - No Time to Kill
DYEAR=2004
DGENRE=
TTITLE0=No Time To Kill
TTITLE1=Thinkin' Again
TTITLE2=A Good Run Of Bad Luck
TTITLE3=State Of Mind
TTITLE4=A Bad Goodbye
TTITLE5=Back To Back
TTITLE6=Half The Man
TTITLE7=I'll Take Texas
TTITLE8=Happiness Alone
TTITLE9=Tuckered Out
EXTD=
EXTT0=
EXTT1=
EXTT2=
EXTT3=
EXTT4=
EXTT5=
EXTT6=
EXTT7=
EXTT8=
EXTT9=
PLAYORDER=
